# xmcd
#
# Track frame offsets:
#	150
#	19613
#	36655
#	50524
#	65860
#	82686
#	98709
#	108975
#	119768
#	131263
#	146039
#	162837
#	176183
#
# Disc length: 2529
#
# Revision: 4
# Processed by: cddbd v1.5.1PL0 Copyright (c) Steve Scherf et al.
# Submitted via: FreeRIP 2.70 
# Normalized: r3:DSETVAR1,TDELIM( - )
#
DISCID=b609df0d
DTITLE=Various Artist - O bom do forró CD3
DYEAR=1900
DGENRE=Country
TTITLE0=Gilberto Gil - Esperando na janela
TTITLE1=Pé de Cabra - Plantação pernambucana
TTITLE2=Trio Sabiá - Bom pra eu
TTITLE3=Rastapé - Colo de menina
TTITLE4=Miltinho Edilberto - Beijo contido
TTITLE5=Paratodos - Xote coladinho
TTITLE6=Elba Ramalho - Pra virar xodó
TTITLE7=Geraldo Azevedo and Cascabulho - Na base da chinela
TTITLE8=Dominguinhos - Isso aqui tá bom demais
TTITLE9=Zanzibar - Feira de Mangaio
TTITLE10=Luiz Gonzaga and Gonzaguinha - A vida do viajante
TTITLE11=Banda Vitamina C - Eu vou arrochar o nó
TTITLE12=Eliane - Te amo perdidamente
EXTD=
EXTT0=
EXTT1=
EXTT2=
EXTT3=
EXTT4=
EXTT5=
EXTT6=
EXTT7=
EXTT8=
EXTT9=
EXTT10=
EXTT11=
EXTT12=
PLAYORDER=
